<?xml version="1.0" encoding="utf-8"?>
<!-- Generator: Adobe Illustrator 24.3.0, SVG Export Plug-In . SVG Version: 6.00 Build 0)  -->
<svg version="1.1" id="Layer_1" xmlns="http://www.w3.org/2000/svg" xmlns:xlink="http://www.w3.org/1999/xlink" x="0px" y="0px"
	 viewBox="0 0 48 129" style="enable-background:new 0 0 48 129;" xml:space="preserve">
<style type="text/css">
	.st0{fill:#814910;}
	.st1{fill:#E2E2E2;}
	.st2{fill:#CBCBCB;}
	.st3{fill:#FBB540;}
	.st4{fill:#FD9226;}
	.st5{fill:#FFC864;}
	.st6{fill:#EA9D2D;}
	.st7{fill:#683B0D;}
	.st8{fill:#D18D28;}
</style>
<path class="st0" d="M33.6,47l-2.5-16.1l1.5-3l-1.5-3h-8.9l-1.5,3l1.5,3L19.8,47c-0.3,2-1.1,4-2.4,5.6l0,0c-1.6,2.2-2.5,4.8-2.5,7.5
	V101c0,2.9,2.3,5.2,5.2,5.2h13.3c2.9,0,5.2-2.3,5.2-5.2V60.2c0-2.7-0.9-5.4-2.5-7.5l0,0C34.7,51,33.9,49,33.6,47L33.6,47z M33.6,47"
	/>
<path class="st0" d="M38.5,98.8v2.2c0,0.2,0,0.5-0.1,0.7h-8.8c-0.8,0-1.5-0.7-1.5-1.5s0.7-1.5,1.5-1.5H38.5z M38.5,98.8"/>
<path class="st1" d="M22.6,20.6h8.1c1,0,1.8,0.8,1.8,1.8V25H20.8v-2.6C20.8,21.4,21.6,20.6,22.6,20.6L22.6,20.6z M22.6,20.6"/>
<rect x="20.8" y="22.8" class="st2" width="11.8" height="2.2"/>
<rect x="14.9" y="64.9" class="st3" width="23.6" height="26.6"/>
<path class="st3" d="M31.1,30.9h-8.9L19.8,47l6.9,3.1l6.9-3.1L31.1,30.9z M31.1,30.9"/>
<path class="st4" d="M31.3,32.3H22l0.2-1.4h8.9L31.3,32.3z M31.3,32.3"/>
<path class="st4" d="M33.6,47l-6.9,3.1L19.8,47l0,0l0.3-1.9l6.6,3.4l6.6-3.2L33.6,47z M33.6,47"/>
<path class="st1" d="M-501,85.2v54h-21c-24.9,0-45,20.1-45,45v54c0,24.9,20.1,45,45,45h21v18h150v-216H-501z M-501,253.2h-21
	c-8.3,0-15-6.7-15-15v-54c0-8.3,6.7-15,15-15h21V253.2z M-501,253.2"/>
<path class="st5" d="M-360,55.2c-4.2,0-8.3,1-12,2.8c-9.9-4.9-21.8-3.3-30,4.1c-8.5-7.6-21-9.1-31-3.5c-6.3-6.1-14.8-9.5-23.6-9.3
	c-8.8,0.2-17.1,3.8-23.2,10.1c-9.6-5.7-21.6-5.5-31.1,0.4c-9.5,5.9-14.9,16.6-14,27.8c0.9,11.1,7.8,20.9,18.1,25.3
	c10.3,4.4,22.1,2.7,30.8-4.4c13,9.9,31.3,8.8,43-2.6c10,5.5,22.5,4.1,31-3.5c8.2,7.4,20.1,9,30,4.1c7.4,3.7,16,3.8,23.5,0.2
	c7.5-3.5,12.9-10.2,14.8-18.3c1.9-8,0-16.5-5.1-22.9C-344,59-351.8,55.2-360,55.2L-360,55.2z M-360,55.2"/>
<path class="st1" d="M-351,325.2h-150c-3.8-7.6-3.8-16.4,0-24h150C-347.2,308.8-347.2,317.7-351,325.2L-351,325.2z M-351,325.2"/>
<rect x="-501" y="139.2" class="st3" width="150" height="162"/>
<path class="st6" d="M-459,271.2c-3.3,0-6-2.7-6-6v-81c0-4-6-4-6,0v9c0,3.3-2.7,6-6,6c-3.3,0-6-2.7-6-6v-9c0-8.3,6.7-15,15-15
	c8.3,0,15,6.7,15,15v81C-453,268.5-455.7,271.2-459,271.2L-459,271.2z M-459,271.2"/>
<path class="st6" d="M-417,271.2c-3.3,0-6-2.7-6-6v-81c0-4-6-4-6,0v9c0,3.3-2.7,6-6,6s-6-2.7-6-6v-9c0-8.3,6.7-15,15-15
	c8.3,0,15,6.7,15,15v81C-411,268.5-413.7,271.2-417,271.2L-417,271.2z M-417,271.2"/>
<path class="st6" d="M-375,271.2c-3.3,0-6-2.7-6-6v-81c0-4-6-4-6,0v9c0,3.3-2.7,6-6,6c-3.3,0-6-2.7-6-6v-9c0-8.3,6.7-15,15-15
	c8.3,0,15,6.7,15,15v81C-369,268.5-371.7,271.2-375,271.2L-375,271.2z M-375,271.2"/>
<path class="st7" d="M23.7,101.8h-3c-0.8,0-1.5-0.7-1.5-1.5s0.7-1.5,1.5-1.5h3c0.8,0,1.5,0.7,1.5,1.5S24.5,101.8,23.7,101.8
	L23.7,101.8z M23.7,101.8"/>
<path class="st7" d="M38.5,98.8v2.2c0,0.2,0,0.5-0.1,0.7h-8.8c-0.8,0-1.5-0.7-1.5-1.5s0.7-1.5,1.5-1.5H38.5z M38.5,98.8"/>
<rect x="14.9" y="64.9" class="st8" width="23.6" height="1.5"/>
<rect x="14.9" y="90" class="st8" width="23.6" height="1.5"/>
<path class="st8" d="M34,66.3c0,4.1-3.3,7.4-7.4,7.4s-7.4-3.3-7.4-7.4s3.3-7.4,7.4-7.4S34,62.3,34,66.3L34,66.3z M34,66.3"/>
<path class="st1" d="M31.9,66.3c0,2.9-2.3,5.2-5.2,5.2c-2.9,0-5.2-2.3-5.2-5.2s2.3-5.2,5.2-5.2C29.5,61.1,31.9,63.5,31.9,66.3
	L31.9,66.3z M31.9,66.3"/>
<path class="st8" d="M33.6,47l-6.9,3.1L19.8,47l0.3-1.9l6.6,3.4l6.6-3.2L33.6,47z M33.6,47"/>
<path class="st8" d="M31.3,32.3H22l0.2-1.4h8.9L31.3,32.3z M31.3,32.3"/>
</svg>
