<svg width="8" height="34" viewBox="0 0 8 34" fill="none" xmlns="http://www.w3.org/2000/svg">
<path d="M7.68027 14.3826C7.89342 14.9114 8 15.4801 8 16.0523V31.4816C8 31.9162 7.76622 32.3146 7.39493 32.5029C6.63859 32.8832 5.31844 33.0788 4.00172 33.0788C2.68156 33.0788 1.36485 32.8832 0.608509 32.5029C0.233777 32.3182 0 31.9162 0 31.4816V16.0523C0 15.4801 0.103137 14.9078 0.319725 14.3826C0.512248 13.9082 0.718522 13.6329 0.979802 13.2309C1.26171 12.7999 1.42673 12.2928 1.45079 11.7676C1.59175 8.6854 1.94929 5.6394 2.4856 2.62961C2.49936 2.54992 2.46154 2.47024 2.39278 2.43402C2.27245 2.36883 2.19682 2.24206 2.19682 2.10443C2.19682 2.07908 2.20026 2.0501 2.2037 2.02475L2.40653 1.04684C2.4306 0.93094 2.40653 0.807796 2.34121 0.710005C2.29652 0.641189 2.26902 0.557886 2.26902 0.474582C2.26902 0.438364 2.27245 0.402145 2.28277 0.365926V0.362304C2.33777 0.177588 2.50279 0.0544434 2.685 0.0544434H5.31156C5.49377 0.0544434 5.65879 0.177588 5.70692 0.362304V0.365926C5.71723 0.402145 5.72067 0.438364 5.72067 0.474582C5.72067 0.557886 5.69661 0.641189 5.64847 0.710005C5.58315 0.807796 5.55909 0.93094 5.58315 1.04684L5.78599 2.02475C5.79287 2.0501 5.79287 2.07908 5.79287 2.10443C5.79287 2.24206 5.72067 2.37245 5.59691 2.43402C5.52815 2.47024 5.49033 2.54992 5.50408 2.62961C6.03696 5.64302 6.39794 8.6854 6.53889 11.7676C6.56296 12.2928 6.72798 12.7999 7.00988 13.2309C7.27804 13.6329 7.48775 13.9082 7.68027 14.3826Z" fill="#F8513D"/>
</svg>
