<svg width="30" height="30" viewBox="0 0 40 40" fill="none" xmlns="http://www.w3.org/2000/svg">
<path d="M15.75 13.125C15.75 14.1605 14.9105 15 13.875 15V15C12.8395 15 12 15.8395 12 16.875V18.125C12 19.1605 12.8395 20 13.875 20V20C14.9105 20 15.75 20.8395 15.75 21.875V33C15.75 34.1046 16.6454 35 17.75 35H20C21.1046 35 22 34.1046 22 33V22C22 20.8954 22.8954 20 24 20H24.69C25.7175 20 26.5779 19.2214 26.6801 18.199L26.7801 17.199C26.8978 16.0216 25.9733 15 24.79 15H24C22.8954 15 22 14.1046 22 13V12.875C22 11.75 22.25 11.25 23.375 11.25H25C26.1046 11.25 27 10.3546 27 9.25V7C27 5.89543 26.1046 5 25 5H22.25C17.75 5 15.75 7 15.75 10.75V13.125Z" fill="white" stroke="#2A2A2A" stroke-width="1.5"/>
</svg>
