<svg width="30" height="30" viewBox="0 0 30 30" fill="none" xmlns="http://www.w3.org/2000/svg">
<path id="favorite" d="M14.6248 4.51338L14.1166 5.37465C14.6744 5.70373 15.3844 5.6827 15.922 5.31692C17.0733 4.53358 18.4225 4.11587 19.8052 4.12566V4.12568H19.8123C20.5078 4.12568 21.1862 4.22403 21.8191 4.43643L21.8191 4.43647L21.8281 4.43938C25.7647 5.71923 27.3434 10.0983 26.0753 14.1618C25.3371 16.2743 24.1338 18.2009 22.562 19.7744C20.2626 22.0004 17.7456 23.9832 15.0398 25.7003C12.3178 23.9925 9.77984 22.0058 7.45306 19.7624C5.89011 18.1867 4.68535 16.2704 3.93525 14.1571C2.64803 10.1022 4.21955 5.71911 8.21205 4.41253L8.21956 4.41008L8.22702 4.4075C8.50797 4.31063 8.79704 4.24116 9.08675 4.19995C9.21016 4.19688 9.32688 4.18652 9.43435 4.17315C9.69275 4.14101 9.95114 4.12568 10.2123 4.12568H10.3341C11.0089 4.14759 11.6596 4.26453 12.2907 4.47639C12.3235 4.4874 12.3568 4.49701 12.3907 4.50518C12.4435 4.53185 12.5064 4.5598 12.5751 4.58254C12.7939 4.65496 12.972 4.72751 13.1304 4.8146L13.1664 4.83441L13.2039 4.8512L13.6375 5.04517C13.6691 5.06425 13.7192 5.09792 13.7953 5.1527C13.8078 5.1617 13.8265 5.17522 13.8467 5.18991C13.8769 5.21175 13.9105 5.23616 13.9328 5.25208C13.9767 5.28346 14.0394 5.32766 14.104 5.36708L14.6248 4.51338Z" stroke="#2A2A2A" stroke-width="2"/>
</svg>
