<svg className="loadingbottle" width="245" height="924" viewBox="0 0 245 924" fill="none" xmlns="http://www.w3.org/2000/svg">
<path className="bottlefill" d="M238.6 447.8V873.8C238.6 885.8 231.8 896.8 221 902C198.9 912.5 160.6 917.9 122.3 917.9C83.9 917.9 45.6 912.5 23.6 902C12.8 896.8 6 885.7 6 873.7V447.7C6 431.8 9 416.1 15.3 401.5C20.9 388.4 26.9 380.8 34.5 369.7C42.7 357.8 47.5 343.8 48.2 329.3C50.4 283.6 54.4 238.1 60.1 193H184.6C190.3 238.1 194.3 283.6 196.5 329.3C197.2 343.8 202 357.8 210.2 369.7C217.8 380.7 223.8 388.4 229.4 401.5C235.6 416.2 238.6 431.9 238.6 447.8Z"/>
<path className="bottleoutline" d="M122.3 923.8C80.4 923.8 42.5 917.6 21 907.3C8.3 901.2 0 888 0 873.7V447.7C0 430.6 3.3 414.3 9.7 399.2C14.7 387.6 19.9 380.1 26 371.4C27.1 369.8 28.3 368.1 29.5 366.4C37.1 355.3 41.5 342.5 42.1 329.2C46 247.6 56.1 162.7 72.1 76.8C67 74 63.8 68.6 63.8 62.7C63.8 61.5 63.9 60.4 64.2 59.2L70.2 32.2C70.5 30.6 70.2 28.9 69.3 27.6C67.2 24.6 66.1 21.2 66.1 17.6C66.1 16 66.3 14.5 66.7 13V12.9C69 5.3 76.1 0 84.1 0H160.5C168.5 0 175.6 5.3 177.8 12.9V13C178.2 14.4 178.4 16 178.4 17.6C178.4 21.2 177.3 24.6 175.2 27.6C174.3 28.9 173.9 30.6 174.3 32.2L180.2 59.2C180.5 60.4 180.6 61.5 180.6 62.7C180.6 68.6 177.4 74 172.3 76.8C188.3 162.7 198.4 247.6 202.3 329.2C202.9 342.5 207.3 355.4 214.9 366.4C216.1 368.1 217.3 369.8 218.4 371.4C224.5 380.1 229.8 387.6 234.7 399.2C241.2 414.3 244.4 430.6 244.4 447.7V873.7C244.4 888 236.2 901.2 223.4 907.3C202.1 917.7 164.2 923.8 122.3 923.8ZM78.3 16.2C78.2 16.6 78.1 17 78.1 17.5C78.1 18.6 78.5 19.7 79.1 20.6C82 24.7 83 29.8 81.9 34.6L75.9 61.6C75.8 61.9 75.8 62.2 75.8 62.5C75.8 64.1 76.7 65.5 78.1 66.2C82.5 68.4 84.9 73.3 84 78.1C68 163.7 57.9 248.3 54 329.6C53.3 345.1 48.2 360.2 39.2 373.1C38 374.9 36.8 376.5 35.7 378.2C29.7 386.7 25 393.4 20.6 403.8C15 417.6 12 432.3 12 447.7V873.7C12 883.4 17.6 892.4 26.2 896.5C46.2 906.1 82.2 911.8 122.4 911.8C162.6 911.8 198.5 906.1 218.6 896.5C227.2 892.4 232.8 883.4 232.8 873.7V447.7C232.8 432.3 229.8 417.5 224 403.9C219.5 393.5 214.8 386.8 208.9 378.3C207.8 376.7 206.6 375 205.4 373.2C196.5 360.3 191.4 345.3 190.6 329.7C186.7 248.4 176.6 163.8 160.6 78.2C159.7 73.4 162.1 68.5 166.5 66.3C167.9 65.6 168.8 64.1 168.8 62.5C168.8 62.2 168.8 61.9 168.7 61.6L162.8 34.6C161.7 29.7 162.8 24.6 165.6 20.5C166.2 19.6 166.6 18.5 166.6 17.4C166.6 16.9 166.5 16.5 166.4 16.1V16C165.7 13.6 163.3 11.8 160.6 11.8H84.1C81.4 11.8 79.1 13.5 78.4 15.9L78.3 16.2Z" fill="white"/>
</svg>
