<svg width="40" height="40" viewBox="0 0 40 40" fill="none" xmlns="http://www.w3.org/2000/svg">
<path d="M9.08337 15C9.08337 8.96419 13.9643 4.08331 20 4.08331C26.0358 4.08331 30.9167 8.96419 30.9167 15C30.9167 18.201 29.2328 22.1022 27.0758 25.7537C24.9363 29.3755 22.4061 32.6297 20.8587 34.5059C20.4048 35.0562 19.5952 35.0562 19.1414 34.5059C17.594 32.6297 15.0638 29.3755 12.9243 25.7537C10.7673 22.1022 9.08337 18.201 9.08337 15ZM15.0834 15C15.0834 17.7142 17.2858 19.9166 20 19.9166C22.7143 19.9166 24.9167 17.7142 24.9167 15C24.9167 12.2858 22.7143 10.0833 20 10.0833C17.2858 10.0833 15.0834 12.2858 15.0834 15Z" fill="white" stroke="#2A2A2A" stroke-width="1.5"/>
</svg>
