<svg width="601" height="601" viewBox="0 0 601 601" fill="none" xmlns="http://www.w3.org/2000/svg">
<path d="M383.054 355.53C383.392 295.832 362.867 240.793 306.615 208.022C311.683 204.547 314.386 199.336 314.386 192.939V97.7066C314.386 96.8379 314.301 96.0483 314.217 95.1797C313.794 91.4683 312.274 87.9938 309.825 85.151C305.77 80.571 300.196 78.123 293.439 78.123H234.061C226.037 78.123 220.041 80.9658 216.24 86.7303C214.213 89.889 213.199 93.5214 213.199 97.6276V181.884C199.854 181.016 185.073 181.016 171.728 181.805V97.7855C171.728 94.7059 171.137 91.9421 169.954 89.4152C166.576 82.4662 159.312 78.123 150.866 78.202H90.7281C84.7312 78.202 79.7479 80.0972 76.0315 83.8876C72.3996 87.5989 70.5415 92.2579 70.5415 97.7855V193.018C70.5415 199.178 72.8219 204.152 77.3829 207.785C24.4248 238.187 2.04213 289.515 1.36642 345.975C0.775184 359.478 1.11304 393.118 1.02857 407.568C0.183945 447.92 5.16725 488.903 25.8606 520.963C60.6593 575.371 120.628 594.56 192.168 594.717C263.032 594.638 323.17 575.134 357.715 520.963C373.341 495.931 381.787 463.397 382.631 433.232C383.645 413.649 383.054 375.587 383.054 355.53ZM261.343 388.301C260.498 409.069 257.88 430.232 245.971 447.92C234.568 464.345 217.422 471.689 192.083 471.847C171.221 471.768 155.342 466.398 143.94 455.264C133.973 445.314 128.652 432.206 125.611 419.018C123.415 409.858 122.402 398.408 122.064 388.064C122.402 377.167 123.669 364.769 126.202 354.819C134.142 323.075 154.497 304.044 192.083 304.281C246.646 303.255 260.245 345.422 261.343 388.301ZM374.607 371.876C374.607 371.481 374.607 371.086 374.607 370.691C374.607 371.007 374.692 371.639 374.607 371.876Z" fill="#F8513D"/>
<path d="M163.197 97.7779V153.291C163.197 156.686 162.099 159.292 159.903 161.187C157.538 163.241 154.582 164.188 150.865 164.188H90.7277C87.0113 164.188 84.224 163.241 82.1125 161.266C80.0009 159.292 78.9873 156.686 78.9873 153.212V97.6989C78.9873 96.3565 79.1563 95.172 79.4096 94.0665C79.663 93.1189 80.0009 92.2503 80.5077 91.4606C80.6766 91.1448 80.93 90.8289 81.0989 90.513C81.4368 90.0393 81.7746 89.6444 82.1969 89.2496C84.3085 87.1175 87.0113 86.091 90.6432 86.091H150.781C154.497 86.091 157.369 87.1175 159.734 89.3286C160.156 89.7234 160.578 90.1972 160.916 90.592C161.254 91.0658 161.592 91.5396 161.845 92.0134C162.099 92.4082 162.268 92.882 162.437 93.2768C162.605 93.6717 162.774 94.1455 162.859 94.6193C163.028 95.7248 163.197 96.6724 163.197 97.7779Z" fill="white"/>
<path d="M305.855 97.7779V153.291C305.855 156.686 304.757 159.292 302.561 161.187C300.196 163.241 297.24 164.188 293.523 164.188H234.146C230.007 164.188 226.882 163.241 224.855 161.266C222.743 159.292 221.73 156.686 221.73 153.212V97.6989C221.73 94.2244 222.743 91.3817 224.939 89.2496C227.051 87.1175 230.007 86.091 234.146 86.091H293.523C297.24 86.091 300.111 87.1175 302.476 89.3286C302.899 89.7234 303.321 90.1972 303.659 90.592C303.997 91.0658 304.334 91.5396 304.588 92.0134C304.841 92.4082 305.01 92.882 305.179 93.2768C305.348 93.6717 305.517 94.1455 305.601 94.6193C305.77 95.7248 305.855 96.6724 305.855 97.7779Z" fill="white"/>
<path d="M374.523 356.003C374.439 352.213 374.354 348.422 374.185 344.632C374.185 344 374.101 343.369 374.101 342.816C374.692 200.914 204.5 155.825 86.9275 211.733C25.8608 242.292 6.26548 306.097 9.47507 367.769C7.44796 435.68 25.1852 497.589 93.2622 528.78C142.926 552.944 240.227 553.102 290.145 528.78C361.938 497.036 378.24 425.335 374.523 356.003ZM270.127 377.561C270.043 381.272 270.043 384.589 269.874 388.063C269.789 390.195 269.705 392.327 269.536 394.459C269.536 394.775 269.452 395.091 269.452 395.407C268.86 406.225 267.424 416.57 264.553 426.835C264.299 427.625 264.046 428.494 263.793 429.283C263.708 429.441 263.708 429.678 263.624 429.836C263.539 429.994 263.539 430.231 263.455 430.389V430.468C263.201 431.337 262.863 432.205 262.526 433.074C262.357 433.627 262.103 434.179 261.934 434.732C261.765 435.127 261.681 435.522 261.512 435.838C261.512 435.917 261.428 435.996 261.428 435.996C258.809 442.787 255.262 449.341 250.701 455.263C227.22 488.35 155.089 487.56 132.368 454.474C132.368 454.474 132.368 454.474 132.368 454.395C130.764 452.341 129.328 450.209 127.976 447.998C125.865 444.603 124.091 441.049 122.571 437.338C122.486 437.259 122.486 437.18 122.486 437.101C122.233 436.548 121.98 435.996 121.811 435.364C121.05 433.469 120.375 431.573 119.783 429.52C119.53 428.889 119.361 428.178 119.192 427.546C118.263 424.388 117.503 421.15 116.827 417.912C115.391 410.963 114.462 403.383 114.04 395.249C112.097 358.767 110.83 304.28 135.156 278.617C158.299 249.241 225.615 249.004 248.589 278.617C269.283 301.517 270.887 342.816 270.127 377.561Z" fill="white"/>
<path d="M598.011 252.242C595.393 243.477 591.93 238.107 588.044 230.921C584.075 223.735 582.385 215.76 583.146 207.784C583.652 202.256 584.075 196.808 584.497 191.28C587.2 153.771 587.707 116.026 586.355 78.1222C586.102 70.1467 585.68 62.0922 585.257 54.0377C589.565 52.3794 592.268 48.1942 591.845 43.8511L590.325 27.1893C590.241 26.3207 590.578 25.452 591.254 24.7413C593.366 22.6093 594.548 19.6086 594.295 16.6868C594.295 16.4499 594.21 16.213 594.21 16.0551L594.126 15.6603C593.281 10.8434 589.058 7.053 583.821 6.42127L534.664 0.340904C525.289 -0.922549 518.025 8.31645 522.501 16.213C522.924 17.0027 523.008 17.9503 522.67 18.7399L516.589 34.5331C514.984 38.6393 516.42 43.3773 520.136 45.9831C502.653 96.2054 488.97 146.349 479.594 194.992C476.385 211.732 466.249 216.786 456.451 229.263C450.539 237.08 446.316 245.846 443.951 255.322C438.207 288.803 405.267 529.886 400.959 557.997C399.777 566.684 404 575.449 411.771 580.187C439.306 596.375 506.791 606.167 542.181 596.217C551.05 593.532 557.469 586.109 558.736 577.423L564.226 538.256C564.226 538.256 600.292 282.407 600.292 282.328C601.643 271.983 600.883 261.876 598.011 252.242ZM471.908 224.209C472.162 223.972 472.33 223.735 472.584 223.498C471.57 224.525 470.472 225.63 469.459 226.657C470.219 225.946 471.064 225.078 471.908 224.209ZM469.459 226.736C468.699 227.526 467.938 228.315 467.178 229.184C467.938 228.394 468.699 227.604 469.459 226.736Z" fill="#F8513D"/>
<path d="M591.761 281.214L555.78 536.984C555.78 537.063 555.78 537.063 555.78 537.142C554.936 542.749 550.712 547.487 545.053 549.224C531.455 553.409 507.89 553.962 482.213 550.803C456.452 547.645 433.9 541.407 421.907 534.063C416.839 530.983 414.136 525.298 414.896 519.612L450.877 263.842C452.144 254.603 455.27 246.074 460.168 238.415C462.533 234.703 464.729 231.939 467.263 229.255C468.023 228.465 468.784 227.675 469.544 226.807C470.304 226.017 471.149 225.148 471.993 224.28C472.247 224.043 472.415 223.806 472.669 223.569C473.345 222.858 474.02 222.227 474.696 221.516C481.537 214.409 486.098 205.723 487.957 196.405C497.332 147.92 510.93 97.9345 528.414 47.8701C529.428 44.8694 528.245 41.6318 525.458 39.8946C524.698 39.4208 524.276 38.6311 524.445 37.7625C524.445 37.6046 524.529 37.4467 524.529 37.2887L530.61 21.4956C531.793 18.5738 531.539 15.3362 529.935 12.5724C529.597 12.0197 529.512 11.3879 529.597 10.8352C529.597 10.5983 529.681 10.4403 529.766 10.2034L529.85 10.1245C530.441 8.86103 531.962 8.07137 533.482 8.30827L582.555 14.3097C584.16 14.4676 585.342 15.5731 585.596 16.9945V17.0735C585.596 17.3104 585.596 17.4683 585.596 17.7052C585.511 18.258 585.258 18.8897 584.751 19.2845C582.47 21.5745 581.372 24.6542 581.626 27.7339L583.146 44.4746C583.146 44.6325 583.146 44.7905 583.146 44.9484C583.062 45.817 582.386 46.4488 581.541 46.7646C578.416 47.7912 576.305 50.6339 576.474 53.7926C579.514 106.384 578.839 158.027 574.446 207.065C573.602 216.541 575.629 226.017 580.274 234.545C580.95 235.73 581.541 236.835 582.133 237.862C585.258 243.39 587.707 247.812 589.65 254.366C592.353 262.973 593.028 271.975 591.761 281.214Z" fill="white"/>
</svg>
