<svg width="80" height="64" viewBox="0 0 80 64" fill="none" xmlns="http://www.w3.org/2000/svg">
<path d="M80 44C80 55.0457 71.0457 64 60 64L0 64L5.59506e-06 -6.99382e-06L80 0L80 44Z" fill="#F8513D"/>
<path d="M42.9749 34.4311C42.9997 30.0533 41.4945 26.017 37.3694 23.6139C37.741 23.3591 37.9392 22.9769 37.9392 22.5078V15.5241C37.9392 15.4604 37.933 15.4025 37.9268 15.3388C37.8959 15.0666 37.7844 14.8118 37.6047 14.6033C37.3074 14.2675 36.8986 14.088 36.4031 14.088H32.0488C31.4604 14.088 31.0206 14.2964 30.7419 14.7192C30.5932 14.9508 30.5189 15.2172 30.5189 15.5183V21.6971C29.5402 21.6334 28.4563 21.6334 27.4777 21.6913V15.5299C27.4777 15.304 27.4343 15.1013 27.3476 14.916C27.0998 14.4064 26.5672 14.088 25.9478 14.0937H21.5377C21.0979 14.0937 20.7325 14.2327 20.4599 14.5107C20.1936 14.7829 20.0573 15.1245 20.0573 15.5299V22.5136C20.0573 22.9653 20.2246 23.3301 20.559 23.5965C16.6754 25.8259 15.0341 29.59 14.9845 33.7304C14.9411 34.7207 14.9659 37.1875 14.9597 38.2473C14.8978 41.2064 15.2632 44.2118 16.7807 46.5629C19.3326 50.5528 23.7303 51.9599 28.9766 51.9715C34.1733 51.9657 38.5834 50.5354 41.1167 46.5629C42.2626 44.7272 42.882 42.3414 42.9439 40.1293C43.0182 38.6932 42.9749 35.902 42.9749 34.4311ZM34.0494 36.8343C33.9875 38.3573 33.7955 39.9092 32.9221 41.2064C32.086 42.4109 30.8286 42.9494 28.9704 42.961C27.4405 42.9552 26.276 42.5614 25.4399 41.7449C24.709 41.0153 24.3188 40.054 24.0958 39.0869C23.9347 38.4152 23.8604 37.5755 23.8356 36.8169C23.8604 36.0178 23.9533 35.1086 24.1391 34.379C24.7214 32.0511 26.2141 30.6555 28.9704 30.6729C32.9717 30.5976 33.9689 33.6899 34.0494 36.8343ZM42.3555 35.6298C42.3555 35.6009 42.3555 35.5719 42.3555 35.543C42.3555 35.5661 42.3617 35.6124 42.3555 35.6298Z" fill="#2A2A2A"/>
<path d="M26.852 15.5293V19.6002C26.852 19.8492 26.7715 20.0403 26.6105 20.1793C26.4371 20.3299 26.2203 20.3994 25.9477 20.3994H21.5377C21.2651 20.3994 21.0607 20.3299 20.9059 20.1851C20.751 20.0403 20.6767 19.8492 20.6767 19.5944V15.5235C20.6767 15.425 20.6891 15.3382 20.7077 15.2571C20.7262 15.1876 20.751 15.1239 20.7882 15.066C20.8006 15.0429 20.8192 15.0197 20.8315 14.9965C20.8563 14.9618 20.8811 14.9328 20.9121 14.9039C21.0669 14.7475 21.2651 14.6722 21.5315 14.6722H25.9415C26.2141 14.6722 26.4247 14.7475 26.5981 14.9097C26.6291 14.9386 26.66 14.9734 26.6848 15.0023C26.7096 15.0371 26.7344 15.0718 26.7529 15.1066C26.7715 15.1355 26.7839 15.1703 26.7963 15.1992C26.8087 15.2282 26.8211 15.2629 26.8273 15.2976C26.8397 15.3787 26.852 15.4482 26.852 15.5293Z" fill="white"/>
<path d="M37.3136 15.5293V19.6002C37.3136 19.8492 37.2331 20.0403 37.0721 20.1793C36.8986 20.3299 36.6818 20.3994 36.4093 20.3994H32.055C31.7515 20.3994 31.5223 20.3299 31.3736 20.1851C31.2188 20.0403 31.1445 19.8492 31.1445 19.5944V15.5235C31.1445 15.2687 31.2188 15.0602 31.3798 14.9039C31.5347 14.7475 31.7515 14.6722 32.055 14.6722H36.4093C36.6818 14.6722 36.8924 14.7475 37.0659 14.9097C37.0968 14.9386 37.1278 14.9734 37.1526 15.0023C37.1774 15.0371 37.2021 15.0718 37.2207 15.1066C37.2393 15.1355 37.2517 15.1703 37.2641 15.1992C37.2765 15.2282 37.2889 15.2629 37.295 15.2976C37.3074 15.3787 37.3136 15.4482 37.3136 15.5293Z" fill="white"/>
<path d="M42.3493 34.4658C42.3431 34.1878 42.3369 33.9099 42.3245 33.6319C42.3245 33.5856 42.3183 33.5393 42.3183 33.4987C42.3617 23.0926 29.8809 19.7861 21.259 23.886C16.7808 26.127 15.3438 30.806 15.5791 35.3286C15.4305 40.3087 16.7312 44.8487 21.7235 47.1361C25.3656 48.9081 32.501 48.9197 36.1616 47.1361C41.4264 44.8082 42.6219 39.5501 42.3493 34.4658ZM34.6936 36.0467C34.6874 36.3189 34.6874 36.5621 34.675 36.8169C34.6688 36.9732 34.6626 37.1296 34.6503 37.2859C34.6503 37.3091 34.6441 37.3323 34.6441 37.3554C34.6007 38.1488 34.4954 38.9074 34.2848 39.6602C34.2662 39.7181 34.2477 39.7818 34.2291 39.8397C34.2229 39.8513 34.2229 39.8686 34.2167 39.8802C34.2105 39.8918 34.2105 39.9092 34.2043 39.9208V39.9265C34.1857 39.9902 34.1609 40.0539 34.1362 40.1176C34.1238 40.1582 34.1052 40.1987 34.0928 40.2392C34.0804 40.2682 34.0742 40.2972 34.0618 40.3203C34.0618 40.3261 34.0556 40.3319 34.0556 40.3319C33.8636 40.8299 33.6035 41.3106 33.269 41.7449C31.5471 44.1712 26.2575 44.1133 24.5913 41.687C24.5913 41.687 24.5913 41.687 24.5913 41.6812C24.4736 41.5306 24.3683 41.3742 24.2692 41.2121C24.1144 40.9631 23.9843 40.7025 23.8728 40.4303C23.8666 40.4246 23.8666 40.4188 23.8666 40.413C23.848 40.3724 23.8295 40.3319 23.8171 40.2856C23.7613 40.1466 23.7118 40.0076 23.6684 39.8571C23.6498 39.8107 23.6374 39.7586 23.6251 39.7123C23.5569 39.4806 23.5012 39.2432 23.4516 39.0058C23.3463 38.4962 23.2782 37.9403 23.2472 37.3438C23.1048 34.6685 23.0119 30.6728 24.7957 28.7908C26.4928 26.6366 31.4294 26.6192 33.1142 28.7908C34.6317 30.4701 34.7494 33.4987 34.6936 36.0467Z" fill="white"/>
<path d="M58.7384 26.8566C58.5464 26.2139 58.2924 25.8201 58.0075 25.2931C57.7164 24.7662 57.5925 24.1813 57.6483 23.5964C57.6854 23.1911 57.7164 22.7915 57.7474 22.3861C57.9456 19.6355 57.9828 16.8675 57.8836 14.0879C57.8651 13.503 57.8341 12.9123 57.8031 12.3217C58.119 12.2001 58.3172 11.8932 58.2863 11.5747L58.1748 10.3528C58.1686 10.2891 58.1933 10.2254 58.2429 10.1733C58.3977 10.0169 58.4845 9.79689 58.4659 9.58263C58.4659 9.56525 58.4597 9.54788 58.4597 9.5363L58.4535 9.50734C58.3916 9.1541 58.0819 8.87615 57.6978 8.82982L54.093 8.38393C53.4054 8.29127 52.8728 8.9688 53.201 9.54788C53.232 9.60579 53.2382 9.67528 53.2134 9.73319L52.7675 10.8914C52.6498 11.1925 52.7551 11.5399 53.0276 11.731C51.7455 15.414 50.742 19.0912 50.0545 22.6583C49.8191 23.886 49.0759 24.2566 48.3574 25.1715C47.9238 25.7448 47.6141 26.3876 47.4407 27.0825C47.0195 29.5378 44.6039 47.2172 44.288 49.2787C44.2013 49.9157 44.511 50.5585 45.0808 50.9059C47.1 52.0931 52.049 52.8111 54.6442 52.0815C55.2946 51.8846 55.7653 51.3402 55.8582 50.7033L56.2608 47.831C56.2608 47.831 58.9056 29.0687 58.9056 29.063C59.0048 28.3044 58.949 27.5631 58.7384 26.8566ZM49.4909 24.8009C49.5095 24.7835 49.5218 24.7662 49.5404 24.7488C49.4661 24.8241 49.3856 24.9051 49.3112 24.9804C49.367 24.9283 49.4289 24.8646 49.4909 24.8009ZM49.3112 24.9862C49.2555 25.0441 49.1998 25.102 49.144 25.1657C49.1998 25.1078 49.2555 25.0499 49.3112 24.9862Z" fill="#2A2A2A"/>
<path d="M58.2801 28.9813L55.6415 47.7378C55.6415 47.7436 55.6415 47.7436 55.6415 47.7494C55.5795 48.1605 55.2698 48.508 54.8549 48.6354C53.8576 48.9423 52.1295 48.9828 50.2466 48.7512C48.3574 48.5195 46.7036 48.0621 45.8241 47.5235C45.4525 47.2977 45.2543 46.8807 45.31 46.4638L47.9486 27.7073C48.0415 27.0298 48.2707 26.4044 48.63 25.8427C48.8034 25.5705 48.9644 25.3678 49.1502 25.1709C49.206 25.113 49.2617 25.0551 49.3175 24.9914C49.3732 24.9335 49.4352 24.8698 49.4971 24.8061C49.5157 24.7887 49.5281 24.7714 49.5467 24.754C49.5962 24.7019 49.6458 24.6556 49.6953 24.6034C50.197 24.0823 50.5315 23.4453 50.6678 22.762C51.3553 19.2064 52.3525 15.5408 53.6346 11.8694C53.709 11.6494 53.6223 11.4119 53.4179 11.2845C53.3621 11.2498 53.3311 11.1919 53.3435 11.1282C53.3435 11.1166 53.3497 11.105 53.3497 11.0935L53.7957 9.93529C53.8824 9.72103 53.8638 9.4836 53.7461 9.28093C53.7214 9.24039 53.7152 9.19406 53.7214 9.15353C53.7214 9.13615 53.7276 9.12457 53.7338 9.1072L53.7399 9.10141C53.7833 9.00876 53.8948 8.95085 54.0063 8.96822L57.605 9.40832C57.7226 9.41991 57.8094 9.50098 57.8279 9.60521V9.611C57.8279 9.62837 57.8279 9.63996 57.8279 9.65733C57.8217 9.69786 57.8032 9.74419 57.766 9.77315C57.5988 9.94108 57.5182 10.1669 57.5368 10.3928L57.6483 11.6204C57.6483 11.632 57.6483 11.6436 57.6483 11.6552C57.6421 11.7189 57.5926 11.7652 57.5306 11.7884C57.3015 11.8636 57.1466 12.0721 57.159 12.3037C57.382 16.1604 57.3324 19.9476 57.0103 23.5437C56.9484 24.2386 57.0971 24.9335 57.4377 25.5589C57.4873 25.6458 57.5306 25.7269 57.574 25.8021C57.8032 26.2075 57.9828 26.5318 58.1252 27.0124C58.3235 27.6436 58.373 28.3038 58.2801 28.9813Z" fill="white"/>
</svg>
