<svg width="400" height="1586" viewBox="0 0 400 1586" fill="none" xmlns="http://www.w3.org/2000/svg">
<path d="M384.014 687.76C394.671 713.142 400 740.437 400 767.906V1508.52C400 1529.38 388.311 1548.5 369.746 1557.54C331.93 1575.8 265.922 1585.19 200.086 1585.19C134.078 1585.19 68.2424 1575.8 30.4254 1557.54C11.6889 1548.68 0 1529.38 0 1508.52V767.906C0 740.437 5.15685 712.968 15.9862 687.76C25.6124 664.985 35.9261 651.772 48.9901 632.475C63.0855 611.786 71.3365 587.447 72.5398 562.238C79.5875 414.29 97.4646 268.08 124.28 123.609C124.968 119.784 123.077 115.959 119.639 114.221C113.623 111.092 109.841 105.007 109.841 98.4004C109.841 97.1834 110.013 95.7926 110.185 94.5756L120.327 47.6355C121.53 42.0723 120.327 36.1613 117.061 31.4673C114.826 28.1641 113.451 24.1655 113.451 20.1669C113.451 18.4283 113.623 16.6898 114.138 14.9513V14.7774C116.889 5.91098 125.14 0 134.25 0H265.578C274.688 0 282.939 5.91098 285.346 14.7774V14.9513C285.862 16.6898 286.034 18.4283 286.034 20.1669C286.034 24.1655 284.83 28.1641 282.424 31.4673C279.158 36.1613 277.954 42.0723 279.158 47.6355L289.3 94.5756C289.643 95.7926 289.643 97.1834 289.643 98.4004C289.643 105.007 286.034 111.265 279.845 114.221C276.407 115.959 274.517 119.784 275.204 123.609C301.848 268.254 319.897 414.29 326.945 562.238C328.148 587.447 336.399 611.786 350.494 632.475C363.902 651.772 374.388 664.985 384.014 687.76Z" fill="#CBCBCB" fill-opacity="0.5"/>
</svg>
