<svg width="40" height="40" viewBox="0 0 40 40" fill="none" xmlns="http://www.w3.org/2000/svg">
<path d="M17.4569 24.2779C16.5176 25.2209 16.519 26.7464 17.4602 27.6875C18.4027 28.63 19.9307 28.63 20.8731 27.6875L26.6161 21.9445C27.6901 20.8706 27.6901 19.1294 26.6161 18.0555L20.8731 12.3125C19.9307 11.37 18.4027 11.37 17.4602 12.3125C16.519 13.2536 16.5176 14.7791 17.4569 15.7221L17.5455 15.811C18.1981 16.4661 17.734 17.5833 16.8093 17.5833H6.66667C5.33198 17.5833 4.25 18.6653 4.25 20C4.25 21.3347 5.33198 22.4167 6.66667 22.4167H16.8093C17.734 22.4167 18.1981 23.5339 17.5455 24.189L17.4569 24.2779ZM31.6667 4.25H8.33333C6.06668 4.25 4.25 6.08823 4.25 8.33333V13.3333C4.25 14.668 5.33198 15.75 6.66667 15.75C8.00135 15.75 9.08333 14.668 9.08333 13.3333V10.3333C9.08333 9.64298 9.64298 9.08333 10.3333 9.08333H29.6667C30.357 9.08333 30.9167 9.64298 30.9167 10.3333V29.6667C30.9167 30.357 30.357 30.9167 29.6667 30.9167H10.3333C9.64298 30.9167 9.08333 30.357 9.08333 29.6667V26.6667C9.08333 25.332 8.00135 24.25 6.66667 24.25C5.33198 24.25 4.25 25.332 4.25 26.6667V31.6667C4.25 33.9118 6.06668 35.75 8.33333 35.75H31.6667C33.9142 35.75 35.75 33.9142 35.75 31.6667V8.33333C35.75 6.08579 33.9142 4.25 31.6667 4.25Z" fill="white" stroke="#2A2A2A" stroke-width="1.5"/>
</svg>
